<svg id="SvgjsSvg1001" width="288" height="288" xmlns="http://www.w3.org/2000/svg" version="1.1" xmlns:xlink="http://www.w3.org/1999/xlink" xmlns:svgjs="http://svgjs.com/svgjs"><defs id="SvgjsDefs1002"></defs><g id="SvgjsG1008"><svg xmlns="http://www.w3.org/2000/svg" fill="none" viewBox="0 0 53 52" width="288" height="288"><path fill="#ffffff" d="M0 26.0001C0 37.1332 6.96388 46.6169 16.7912 50.3279V1.67236C6.96388 5.38338 0 14.8671 0 26.0001zM26.0015 0C25.2914 0 24.5583.0229075 23.8711.0687225V1.90132H24.0085C33.9046 1.97004 41.8764 9.52952 41.8077 18.7841 41.7389 27.993 33.7213 35.415 23.8711 35.3921V51.9084C24.5812 51.9771 25.2914 52 26.0015 52 40.3645 52 52.0015 40.363 52.0015 26 52.0015 11.637 40.3645 0 26.0015 0z" class="colorDC1928 svgShape"></path></svg></g></svg>